<mxfile host="app.diagrams.net" modified="2023-06-30T09:46:24.863Z" agent="Mozilla/5.0 (Windows NT 10.0; Win64; x64) AppleWebKit/537.36 (KHTML, like Gecko) Chrome/114.0.0.0 Safari/537.36 Edg/114.0.1823.58" etag="tX5v1rpP0qv8qlyC2wyr" version="21.5.2" type="github">
  <diagram name="第 1 页" id="vt9qeb35iKOAf9fGzaod">
    <mxGraphModel dx="1908" dy="1687" grid="0" gridSize="10" guides="1" tooltips="1" connect="1" arrows="1" fold="1" page="0" pageScale="1" pageWidth="700" pageHeight="1000" math="0" shadow="0">
      <root>
        <mxCell id="0" />
        <mxCell id="1" parent="0" />
        <mxCell id="MFYgVtaWOH1lfTxiA4j1-1" value="设备主表" style="rounded=0;whiteSpace=wrap;html=1;fontSize=16;" vertex="1" parent="1">
          <mxGeometry x="-135.5" y="-350" width="120" height="60" as="geometry" />
        </mxCell>
        <mxCell id="MFYgVtaWOH1lfTxiA4j1-2" value="农村供水服务" style="text;strokeColor=none;fillColor=none;html=1;align=center;verticalAlign=middle;whiteSpace=wrap;rounded=0;fontSize=16;" vertex="1" parent="1">
          <mxGeometry x="-141" y="-445" width="131" height="30" as="geometry" />
        </mxCell>
        <mxCell id="MFYgVtaWOH1lfTxiA4j1-3" value="设备" style="text;strokeColor=none;fillColor=none;html=1;align=center;verticalAlign=middle;whiteSpace=wrap;rounded=0;fontSize=16;" vertex="1" parent="1">
          <mxGeometry x="463.5" y="-447" width="131" height="30" as="geometry" />
        </mxCell>
        <mxCell id="MFYgVtaWOH1lfTxiA4j1-4" value="设备注册" style="rounded=0;whiteSpace=wrap;html=1;fontSize=16;" vertex="1" parent="1">
          <mxGeometry x="469" y="-350" width="120" height="60" as="geometry" />
        </mxCell>
        <mxCell id="MFYgVtaWOH1lfTxiA4j1-5" value="设备注册表" style="rounded=0;whiteSpace=wrap;html=1;fontSize=16;" vertex="1" parent="1">
          <mxGeometry x="165" y="-350" width="120" height="60" as="geometry" />
        </mxCell>
        <mxCell id="MFYgVtaWOH1lfTxiA4j1-6" value="" style="endArrow=classic;html=1;rounded=0;fontSize=12;startSize=8;endSize=8;curved=1;exitX=0;exitY=0.5;exitDx=0;exitDy=0;entryX=1;entryY=0.5;entryDx=0;entryDy=0;" edge="1" parent="1" source="MFYgVtaWOH1lfTxiA4j1-4" target="MFYgVtaWOH1lfTxiA4j1-5">
          <mxGeometry width="50" height="50" relative="1" as="geometry">
            <mxPoint x="468" y="-317" as="sourcePoint" />
            <mxPoint x="299" y="-317" as="targetPoint" />
          </mxGeometry>
        </mxCell>
        <mxCell id="MFYgVtaWOH1lfTxiA4j1-7" value="&lt;span style=&quot;color: rgb(0, 0, 0); font-family: Helvetica; font-size: 16px; font-style: normal; font-variant-ligatures: normal; font-variant-caps: normal; font-weight: 400; letter-spacing: normal; orphans: 2; text-align: center; text-indent: 0px; text-transform: none; widows: 2; word-spacing: 0px; -webkit-text-stroke-width: 0px; background-color: rgb(255, 255, 255); text-decoration-thickness: initial; text-decoration-style: initial; text-decoration-color: initial; float: none; display: inline !important;&quot;&gt;自动注册&lt;/span&gt;" style="text;html=1;align=center;verticalAlign=middle;resizable=0;points=[];autosize=1;strokeColor=none;fillColor=none;fontSize=16;" vertex="1" parent="1">
          <mxGeometry x="329" y="-361" width="82" height="31" as="geometry" />
        </mxCell>
        <mxCell id="MFYgVtaWOH1lfTxiA4j1-8" value="" style="endArrow=classic;startArrow=classic;html=1;rounded=0;fontSize=12;startSize=8;endSize=8;curved=1;entryX=0;entryY=0.5;entryDx=0;entryDy=0;exitX=1;exitY=0.5;exitDx=0;exitDy=0;" edge="1" parent="1" source="MFYgVtaWOH1lfTxiA4j1-1" target="MFYgVtaWOH1lfTxiA4j1-5">
          <mxGeometry width="50" height="50" relative="1" as="geometry">
            <mxPoint x="7" y="-317" as="sourcePoint" />
            <mxPoint x="155" y="-312" as="targetPoint" />
          </mxGeometry>
        </mxCell>
        <mxCell id="MFYgVtaWOH1lfTxiA4j1-9" value="关系绑定" style="text;html=1;align=center;verticalAlign=middle;resizable=0;points=[];autosize=1;strokeColor=none;fillColor=none;fontSize=16;" vertex="1" parent="1">
          <mxGeometry x="32" y="-363" width="82" height="31" as="geometry" />
        </mxCell>
      </root>
    </mxGraphModel>
  </diagram>
</mxfile>
